# xmcd CD database file
#
# Track frame offsets:
#	150
#	27120
#	45985
#	72947
#
# Disc length: 1220 seconds
#
# Revision: 4
# Processed by: cddbd v1.5.1PL0 Copyright (c) Steve Scherf et al.
# Submitted via: CDex 1.51
#
DISCID=2804c204
DTITLE=槇原敬之 - 明けない夜が来ることはない
DYEAR=2005
DGENRE=JPop
TTITLE0=明けない夜が来ることはない
TTITLE1=スポンジ
TTITLE2=明けない夜が来ることはない (Backing Track)
TTITLE3=スポンジ (Backing Track)
EXTD=YEAR: 2005
EXTT0=
EXTT1=
EXTT2=
EXTT3=
PLAYORDER=
